<svg width="25" height="25" viewBox="0 0 25 25" fill="none" xmlns="http://www.w3.org/2000/svg">
<path d="M6.25 3.75C4.86929 3.75 3.75 4.86929 3.75 6.25V8.75C3.75 10.1307 4.86929 11.25 6.25 11.25H8.75C10.1307 11.25 11.25 10.1307 11.25 8.75V6.25C11.25 4.86929 10.1307 3.75 8.75 3.75H6.25Z" fill="white"/>
<path d="M6.25 13.75C4.86929 13.75 3.75 14.8693 3.75 16.25V18.75C3.75 20.1307 4.86929 21.25 6.25 21.25H8.75C10.1307 21.25 11.25 20.1307 11.25 18.75V16.25C11.25 14.8693 10.1307 13.75 8.75 13.75H6.25Z" fill="white"/>
<path d="M13.75 6.25C13.75 4.86929 14.8693 3.75 16.25 3.75H18.75C20.1307 3.75 21.25 4.86929 21.25 6.25V8.75C21.25 10.1307 20.1307 11.25 18.75 11.25H16.25C14.8693 11.25 13.75 10.1307 13.75 8.75V6.25Z" fill="white"/>
<path d="M13.75 16.25C13.75 14.8693 14.8693 13.75 16.25 13.75H18.75C20.1307 13.75 21.25 14.8693 21.25 16.25V18.75C21.25 20.1307 20.1307 21.25 18.75 21.25H16.25C14.8693 21.25 13.75 20.1307 13.75 18.75V16.25Z" fill="white"/>
</svg>
