<svg width="24" height="24" viewBox="0 0 24 24" fill="none" xmlns="http://www.w3.org/2000/svg">
<path d="M12 2.4C8.02356 2.4 4.80001 5.62355 4.80001 9.6V13.9029L3.95148 14.7515C3.60828 15.0947 3.50562 15.6108 3.69136 16.0592C3.87709 16.5076 4.31466 16.8 4.80001 16.8H19.2C19.6854 16.8 20.1229 16.5076 20.3087 16.0592C20.4944 15.6108 20.3917 15.0947 20.0485 14.7515L19.2 13.9029V9.6C19.2 5.62355 15.9765 2.4 12 2.4Z" fill="#6B69A6"/>
<path d="M12 21.6C10.0118 21.6 8.39998 19.9882 8.39998 18H15.6C15.6 19.9882 13.9882 21.6 12 21.6Z" fill="#6B69A6"/>
</svg>
